<?xml version="1.0" encoding="utf-8"?>
<!-- Generator: Adobe Illustrator 25.2.3, SVG Export Plug-In . SVG Version: 6.00 Build 0)  -->
<svg version="1.1" xmlns="http://www.w3.org/2000/svg" xmlns:xlink="http://www.w3.org/1999/xlink" x="0px" y="0px"
	 viewBox="0 0 1920 1080" style="enable-background:new 0 0 1920 1080;" xml:space="preserve">
<style type="text/css">
	.st0{display:none;}
	.st1{fill:#F1C27D;}
	.st2{fill:#FFFFFF;}
</style>
<g id="Ebene_1" class="st0">
	
		<image style="display:inline;overflow:visible;" width="512" height="512" xlink:href="3035962040.png"  transform="matrix(1 0 0 1 704 284)">
	</image>
</g>
<g id="Ebene_4">
	<path class="st1" d="M1133.5,348.3v300h-0.5c0.1,0.7,0.2,1.5,0.3,2.2l-19.4,68.9c-2,4-4.6,9.2-6.7,13.4c-2.8,5.6-4.2,8.4-4.3,8.6
		c-4.2,8.3-17.4,21.5-34.2,23.5c-0.8,0.1-1.5,0.2-2.3,0.2c-1.5,0.1-2.9,0.1-4.3,0H875.5c-3.7-0.4-9-1-15.4-2.1
		c-9-1.6-19.3-5.4-20.2-5.8c-14.3-5.5-47.8-73.7-59.4-112.1l-9.2-18.7c-0.3,0-5-15-2.7-29.1c3-18.7,18.5-35.3,29.8-41V348.3h0.1
		c1.9-27.2,24.6-48.8,52.4-48.8c29,0,52.5,23.5,52.5,52.5c0,3.7-0.4,7.2-1.1,10.7v54.1c7.6-5.1,16.8-8,26.6-8
		c15.2,0,28.7,7,37.5,18.1c8.8-10.9,22.3-17.8,37.4-17.8c9,0,17.4,2.5,24.6,6.8v-52.5c0-1.2,0.2-2.3,0.6-3.3c-0.4-2.6-0.6-5.2-0.6-8
		c0-29,23.5-52.5,52.5-52.5c27.7,0,50.5,21.5,52.4,48.8H1133.5z"/>
	<path class="st2" d="M798.6,348.3c-0.1,1.2-0.1,2.5-0.1,3.7v-3.7H798.6z"/>
	<path class="st2" d="M903.8,489.5v8.3c-0.5-0.3-0.9-0.6-1.4-0.9v-6.5C902.9,490,903.3,489.7,903.8,489.5z"/>
	<path class="st2" d="M904.3,489.4c-0.2,0.1-0.3,0.2-0.5,0.3v-0.2c0.2-0.1,0.3-0.2,0.5-0.3V489.4z"/>
	<path class="st2" d="M954,461.1c0,0.9-0.1,1.9-0.2,2.8v-0.3C953.8,462.8,953.9,461.9,954,461.1z"/>
	<path class="st2" d="M954.2,527v0.2H954c0,13.8-11.2,25-25,25c-13.8,0-25-11.2-25-25v-0.1c0.1,13.7,11.2,24.8,25,24.8
		c13.8,0,25-11.2,25-25H954.2z"/>
	<path class="st2" d="M960,493.5v0.1C960,493.6,960,493.6,960,493.5C960,493.6,960,493.6,960,493.5z"/>
	<path class="st2" d="M973,492.8v1.1c-0.2-0.2-0.4-0.4-0.7-0.5C972.6,493.1,972.8,492.9,973,492.8z"/>
	<path class="st2" d="M1028.1,527v4.1h-0.2c0,13.8-11.2,25-25,25c-13.8,0-25-11.2-25-25c0-0.7,0-1.4,0.1-2
		c1,12.8,11.8,22.9,24.9,22.9c13.8,0,25-11.2,25-25H1028.1z"/>
	<path class="st2" d="M1028.9,464.5c0,1.1-0.1,2.3-0.2,3.4v25.9c0,0-0.1-0.1-0.1-0.1c-0.1-0.1-0.3-0.2-0.4-0.3v-4.1
		c0.1,0.1,0.3,0.2,0.4,0.3v-29.4c0.1,0.7,0.2,1.4,0.3,2.2v0.1C1028.8,463.2,1028.9,463.8,1028.9,464.5z"/>
	<path class="st2" d="M1066.3,765.2c-1.5,0.1-2.9,0.1-4.3,0H1066.3z"/>
	<path class="st2" d="M1068.7,765c-0.8,0.1-1.5,0.2-2.3,0.2C1067.1,765.1,1067.9,765.1,1068.7,765z"/>
	<path class="st2" d="M1133.5,348.3v3.7c0-1.2,0-2.5-0.1-3.7H1133.5z"/>
	<path d="M1133.5,352c0-1.2,0-2.5-0.1-3.7c-1.9-27.2-24.6-48.8-52.4-48.8c-29,0-52.5,23.5-52.5,52.5c0,2.7,0.2,5.4,0.6,8
		c-0.4,1-0.6,2.1-0.6,3.3v52.5c-7.2-4.3-15.6-6.8-24.6-6.8c-15.1,0-28.5,7-37.4,17.8c-8.8-11-22.4-18.1-37.5-18.1
		c-9.8,0-19,3-26.6,8v-54.1c0.7-3.4,1.1-7,1.1-10.7c0-29-23.5-52.5-52.5-52.5c-27.7,0-50.5,21.5-52.4,48.8c-0.1,1.2-0.1,2.5-0.1,3.7
		v204.4c-11.3,5.7-26.8,22.3-29.8,41c-2.3,14,2.4,29.1,2.7,29.1l9.2,18.7c11.7,38.4,45.1,106.6,59.4,112.1
		c0.9,0.3,11.2,4.1,20.2,5.8c6.3,1.1,11.6,1.8,15.4,2.1h190.8c0.8,0,1.5-0.1,2.3-0.2c16.9-2.1,30-15.3,34.2-23.5
		c0.1-0.3,1.5-3.1,4.3-8.6c2.1-4.2,4.7-9.4,6.7-13.4l19.4-68.9c-0.1-0.7-0.2-1.5-0.3-2.2h0.5V352z M978.2,523.6v-26
		c0.2,0.1,0.4,0.2,0.5,0.3v-37.5h0.2c0-13.8,11.2-25,25-25c12.3,0,22.6,8.9,24.6,20.7c0.2,1.4,0.4,2.8,0.4,4.2c0,0.3,0,0.7,0,1
		c0,0.3,0,0.6-0.1,1v0.1c0,0.5-0.1,0.9-0.2,1.3v25.9c0,0-0.1-0.1-0.1-0.1c-0.1-0.1-0.3-0.2-0.4-0.3V527h-0.2c0,13.8-11.2,25-25,25
		c-13.1,0-23.8-10.1-24.9-22.9v0c-0.1-0.7-0.1-1.3-0.1-2C978,525.8,978,524.7,978.2,523.6z M973,492.8v1.1c-0.2-0.2-0.4-0.4-0.7-0.5
		C972.6,493.1,972.8,492.9,973,492.8z M960,493.5v0.1C960,493.6,960,493.6,960,493.5C960,493.6,960,493.6,960,493.5z M902.4,490.3
		c0.5-0.3,0.9-0.6,1.4-0.9v-29.2h0.2c0-13.8,11.2-25,25-25c13.8,0,25,11.2,25,25v0.2c0,0.2,0,0.5,0,0.7c0,0.8-0.1,1.7-0.2,2.5V498
		c0.2-0.1,0.3-0.2,0.5-0.3V527H954c0,13.8-11.2,25-25,25c-0.3,0-0.7,0-1,0c-0.1,0-0.2,0-0.4,0c0,0-0.1,0-0.2,0c-0.3,0-0.5,0-0.8-0.1
		c-0.1,0-0.2,0-0.3,0h0c-0.7-0.1-1.4-0.2-2-0.3c0,0,0,0-0.1,0c-0.2,0-0.3,0-0.4-0.1c-0.2,0-0.3-0.1-0.5-0.1c-0.1,0-0.1,0-0.2,0
		c-0.2-0.1-0.5-0.1-0.7-0.2c-0.2-0.1-0.5-0.1-0.7-0.2c-0.1,0-0.1,0-0.2-0.1c-0.3-0.1-0.7-0.2-1-0.3c-0.1,0-0.1,0-0.1-0.1
		c-0.1,0-0.1,0-0.2-0.1c-0.2-0.1-0.5-0.2-0.7-0.3c-0.1,0-0.2-0.1-0.3-0.1c-0.3-0.1-0.7-0.3-1-0.5c-0.2-0.1-0.5-0.2-0.7-0.3
		c-0.2-0.1-0.3-0.2-0.5-0.2c-0.3-0.2-0.6-0.3-0.9-0.5c-0.7-0.4-1.3-0.9-1.9-1.3c0,0,0,0,0,0c-0.6-0.5-1.2-1-1.8-1.5
		c-0.3-0.3-0.6-0.5-0.9-0.8c-0.3-0.2-0.5-0.5-0.7-0.8c-0.2-0.2-0.4-0.4-0.6-0.6c0,0-0.1-0.1-0.1-0.1c0,0,0,0,0,0
		c-0.3-0.4-0.6-0.7-0.9-1.1c-0.2-0.2-0.4-0.5-0.6-0.8c-0.2-0.2-0.3-0.5-0.5-0.7c-0.1-0.2-0.2-0.3-0.3-0.5c-0.2-0.3-0.4-0.7-0.6-1
		c-0.2-0.3-0.4-0.7-0.6-1.1s-0.4-0.7-0.5-1.1c-0.1-0.3-0.2-0.6-0.4-0.9c-0.1-0.3-0.2-0.6-0.3-1c-0.1-0.3-0.2-0.5-0.3-0.8
		c-0.1-0.3-0.2-0.5-0.2-0.8c0-0.2-0.1-0.4-0.1-0.6c0-0.1-0.1-0.2-0.1-0.3c0-0.2-0.1-0.3-0.1-0.5c-0.1-0.4-0.1-0.8-0.2-1.1
		c-0.1-0.3-0.1-0.7-0.1-1c0,0,0-0.1,0-0.2c0-0.1,0-0.2,0-0.3c0-0.3,0-0.5-0.1-0.8c0,0,0-0.1,0-0.1c0-0.3,0-0.5,0-0.8
		c0,0,0-0.1,0-0.1c0-0.1,0-0.2,0-0.3V527c0-0.2,0-0.4,0-0.6c0-0.9,0.1-1.8,0.2-2.8v-34.5c-0.2,0.1-0.3,0.2-0.5,0.3v8.3
		c-0.5-0.3-0.9-0.6-1.4-0.9V490.3z M823,396.4c0.2,0.1,0.3,0.2,0.5,0.3v-41h0.2c0-15,12.2-27.2,27.2-27.2s27.2,12.2,27.2,27.2
		c0,1.2-0.1,2.5-0.2,3.7v1.9c-0.1,0.4-0.1,0.8-0.1,1.2v155.1L823,547.1V396.4z M1109,647c-2,8.8-8.2,34.8-18.7,65.8
		c-4.1,12-10,18.1-14.8,21.5c-3.9,2.7-6.7,4.9-9.2,6.4H875.5c-5-0.7-10-1.4-15-2.1c-3.5-2.6-6.9-5.1-10.4-7.7
		c-18.9-38.4-37.8-76.8-56.7-115.3c-2.4-6-4.9-14.7-0.9-21.1c3.7-6,9.8-5.2,14.8-11.1l75.4-40.5c4.7,17.4,18.8,30.8,36.6,34.5
		l-62,55.5c-5,4.5-5.5,12.2-1,17.3c4.5,5,12.3,5.5,17.3,1l95.8-85.7c0.2-0.1,0.3-0.3,0.5-0.4c8.6,8.3,20.3,13.3,33.2,13.3
		c24.7,0,45-18.6,47.8-42.6c0,0,0,0,0,0c1.4-1.6,2.3-3.8,2.3-6.1V396.4c0.2,0.1,0.3,0.2,0.5,0.3v-41h0.2c0-15,12.2-27.2,27.2-27.2
		s27.2,12.2,27.2,27.2c0,1.2-0.1,2.5-0.2,3.7V397c0.3-0.2,0.7-0.4,1-0.6V647z"/>
	<path d="M798.6,348.3c-0.1,1.2-0.1,2.5-0.1,3.7v-3.7H798.6z"/>
	<path d="M1028.9,460.5c0,0.3,0,0.7,0,1c0,0.3,0,0.6-0.1,1v0.1c0,0.5-0.1,0.9-0.2,1.3v25.9c0,0-0.1-0.1-0.1-0.1v-33.5
		C1028.8,457.6,1028.9,459,1028.9,460.5z"/>
	<path d="M1133.5,348.3v3.7c0-1.2,0-2.5-0.1-3.7H1133.5z"/>
	<path d="M1068.7,765c-0.8,0.1-1.5,0.2-2.3,0.2C1067.1,765.1,1067.9,765.1,1068.7,765z"/>
	<path d="M1066.3,765.2c-1.5,0.1-2.9,0.1-4.3,0H1066.3z"/>
	<path d="M744.2,632L744.2,632z"/>
	<path d="M732.7,651.4L732.7,651.4z"/>
	<path d="M877.5,782.5L877.5,782.5z"/>
	<path d="M801.1,766.7L801.1,766.7z"/>
	<path d="M762.9,702.6L762.9,702.6z"/>
	<path d="M1164.1,680.9L1164.1,680.9z"/>
	<path d="M903.8,489.5v8.3c-0.5-0.3-0.9-0.6-1.4-0.9v-6.5C902.9,490,903.3,489.7,903.8,489.5z"/>
	<path d="M973,492.8v1.1c-0.2-0.2-0.4-0.4-0.7-0.5C972.6,493.1,972.8,492.9,973,492.8z"/>
	<path d="M973,492.8v1.1c-0.2-0.2-0.4-0.4-0.7-0.5C972.6,493.1,972.8,492.9,973,492.8z"/>
	<path d="M903.8,489.5v8.3c-0.5-0.3-0.9-0.6-1.4-0.9v-6.5C902.9,490,903.3,489.7,903.8,489.5z"/>
	<path d="M973,492.8v1.1c-0.2-0.2-0.4-0.4-0.7-0.5C972.6,493.1,972.8,492.9,973,492.8z"/>
</g>
</svg>
