<?xml version="1.0" encoding="utf-8"?>
<!-- Generator: Adobe Illustrator 25.2.3, SVG Export Plug-In . SVG Version: 6.00 Build 0)  -->
<svg version="1.1" xmlns="http://www.w3.org/2000/svg" xmlns:xlink="http://www.w3.org/1999/xlink" x="0px" y="0px"
	 viewBox="0 0 1920 1080" style="enable-background:new 0 0 1920 1080;" xml:space="preserve">
<style type="text/css">
	.st0{display:none;}
	.st1{fill:#F1C27D;}
	.st2{fill:#FFFFFF;}
	.st3{fill:#999999;}
	.st4{fill:#BC2424;}
	.st5{stroke:#000000;stroke-miterlimit:10;}
</style>
<g id="Ebene_1" class="st0">
	
		<image style="display:inline;overflow:visible;" width="512" height="512" xlink:href="3035962040.png"  transform="matrix(1 0 0 1 704 284)">
	</image>
</g>
<g id="Ebene_5">
	<rect x="885.7" y="435.3" class="st1" width="167.5" height="137.1"/>
</g>
<g id="Ebene_4">
	<path d="M877.5,782.5L877.5,782.5z"/>
	<polygon class="st1" points="952.2,513.6 952,513.7 951.1,513.1 951.5,512.5 	"/>
	<path class="st1" d="M990.2,512.4l-0.2,0.3l0.3-0.2L990.2,512.4z M990.2,512.4l-0.2,0.3l0.3-0.2L990.2,512.4z M990.2,512.4
		l-0.2,0.3l0.3-0.2L990.2,512.4z M990.2,512.4l-0.2,0.3l0.3-0.2L990.2,512.4z M990.2,512.4l-0.2,0.3l0.3-0.2L990.2,512.4z
		 M990.2,512.4l-0.2,0.3l0.3-0.2L990.2,512.4z M990.2,512.4l-0.2,0.3l0.3-0.2L990.2,512.4z M903.8,489.5v-10.2l-7.8,11.5l8.3,12.9
		v-14.4C904.1,489.2,904,489.3,903.8,489.5z M990.2,512.4l-0.2,0.3l0.3-0.2L990.2,512.4z M1133.4,348.3
		c-1.9-27.2-24.6-48.8-52.4-48.8c-29,0-52.5,23.5-52.5,52.5c0,2.7,0.2,5.4,0.6,8c-0.4,1-0.6,2.1-0.6,3.3v52.5
		c-7.2-4.3-15.6-6.8-24.6-6.8c-15.1,0-28.5,7-37.4,17.8c-8.8-11-22.4-18.1-37.5-18.1c-9.8,0-19,3-26.6,8v-54.1
		c0.7-3.4,1.1-7,1.1-10.7c0-29-23.5-52.5-52.5-52.5c-27.7,0-50.5,21.5-52.4,48.8h-0.1v208.1c-11.3,5.7-26.8,22.3-29.8,41
		c-2.3,14,2.4,29.1,2.7,29.1l9.2,18.7c11.7,38.4,45.1,106.6,59.4,112.1c0.9,0.3,11.2,4.1,20.2,5.8c6.3,1.1,11.6,1.8,15.4,2.1H1062
		c1.4,0.1,2.9,0.1,4.3,0c0.8,0,1.6-0.1,2.3-0.2c16.9-2.1,30-15.3,34.2-23.5c0.1-0.3,1.5-3.1,4.3-8.6c2.1-4.2,4.7-9.4,6.7-13.4
		l19.4-68.9c-0.1-0.7-0.2-1.5-0.3-2.2h0.5v-300H1133.4z M1003.9,435.5c12.3,0,22.6,8.9,24.6,20.7v33.5c-0.1-0.1-0.3-0.2-0.4-0.3V527
		h-0.2c0,13.8-11.2,25-25,25c-13.1,0-23.8-10.1-24.9-22.9v0c-0.1-0.7-0.1-1.3-0.1-2c0-1.1,0.1-2.3,0.2-3.4v-26
		c0.2,0.1,0.4,0.2,0.5,0.3v-37.5h0.2c0-1,0.1-2,0.2-3C980.6,445.1,991.2,435.5,1003.9,435.5z M929,435.3c12.8,0,23.4,9.7,24.8,22.2
		c0.1,0.9,0.2,1.9,0.2,2.8v0.2c0,0.2,0,0.5,0,0.7c0,0.8-0.1,1.7-0.2,2.5V498c0.2-0.1,0.3-0.2,0.5-0.3V527H954c0,13.8-11.2,25-25,25
		c-0.3,0-0.7,0-1,0c-0.1,0-0.2,0-0.4,0c0,0-0.1,0-0.2,0c-0.3,0-0.5,0-0.8-0.1c-0.1,0-0.2,0-0.3,0h0c-0.7-0.1-1.4-0.2-2-0.3
		c0,0,0,0-0.1,0c-0.2,0-0.3,0-0.4-0.1c-0.2,0-0.3-0.1-0.5-0.1c-0.1,0-0.1,0-0.2,0c-0.2-0.1-0.5-0.1-0.7-0.2
		c-0.2-0.1-0.5-0.1-0.7-0.2c-0.1,0-0.1,0-0.2-0.1c-0.3-0.1-0.7-0.2-1-0.3c-0.1,0-0.1,0-0.1-0.1c-0.1,0-0.1,0-0.2-0.1
		c-0.2-0.1-0.5-0.2-0.7-0.3c-0.1,0-0.2-0.1-0.3-0.1c-0.3-0.1-0.7-0.3-1-0.5c-0.2-0.1-0.5-0.2-0.7-0.3c-0.2-0.1-0.3-0.2-0.5-0.2
		c-0.3-0.2-0.6-0.3-0.9-0.5c-0.7-0.4-1.3-0.9-1.9-1.3c0,0,0,0,0,0c-0.6-0.5-1.2-1-1.8-1.5c-0.3-0.3-0.6-0.5-0.9-0.8
		c-0.3-0.2-0.5-0.5-0.7-0.8c-0.2-0.2-0.3-0.4-0.5-0.5c0,0-0.1-0.1-0.1-0.1c0,0-0.1-0.1-0.1-0.1c0,0,0,0,0,0
		c-0.3-0.4-0.6-0.7-0.9-1.1c-0.2-0.2-0.4-0.5-0.6-0.8c-0.2-0.2-0.3-0.5-0.5-0.7c-0.1-0.2-0.2-0.3-0.3-0.5c-0.2-0.3-0.4-0.7-0.6-1
		c-0.2-0.3-0.4-0.7-0.6-1.1s-0.4-0.7-0.5-1.1c-0.1-0.3-0.2-0.6-0.4-0.9c-0.1-0.3-0.2-0.6-0.3-1c-0.1-0.3-0.2-0.5-0.3-0.8
		c-0.1-0.3-0.2-0.5-0.2-0.8c0-0.2-0.1-0.4-0.1-0.6c0-0.1-0.1-0.2-0.1-0.3c0-0.2-0.1-0.3-0.1-0.5c-0.1-0.4-0.1-0.7-0.2-1.1
		c-0.1-0.3-0.1-0.7-0.1-1c0,0,0-0.1,0-0.2c0-0.1,0-0.2,0-0.3c0-0.3,0-0.5-0.1-0.8c0,0,0-0.1,0-0.1c0-0.3,0-0.5,0-0.8
		c0,0,0-0.1,0-0.1c0-0.1,0-0.2,0-0.3V527c0-0.2,0-0.4,0-0.6c0-0.9,0.1-1.8,0.2-2.8v-34.5c-0.2,0.1-0.3,0.2-0.5,0.3v-29.2h0.2
		c0-0.9,0.1-1.9,0.2-2.8C905.6,445,916.2,435.3,929,435.3z M990.2,512.4l-0.2,0.3l0.3-0.2L990.2,512.4z M990.2,512.4l-0.2,0.3
		l0.3-0.2L990.2,512.4z M990.2,512.4l-0.2,0.3l0.3-0.2L990.2,512.4z M990.2,512.4l-0.2,0.3l0.3-0.2L990.2,512.4z M990.2,512.4
		l-0.2,0.3l0.3-0.2L990.2,512.4z M990.2,512.4l-0.2,0.3l0.3-0.2L990.2,512.4z M990.2,512.4l-0.2,0.3l0.3-0.2L990.2,512.4z"/>
	<path class="st2" d="M798.6,348.3c-0.1,1.2-0.1,2.5-0.1,3.7v-3.7H798.6z"/>
	<path class="st2" d="M903.8,489.5v8.3c-0.5-0.3-0.9-0.6-1.4-0.9v-6.5C902.9,490,903.3,489.7,903.8,489.5z"/>
	<path class="st2" d="M904.3,489.2v0.2c-0.2,0.1-0.3,0.2-0.5,0.3v-0.2C904,489.3,904.1,489.2,904.3,489.2z"/>
	<path class="st2" d="M954,461.1c0,0.9-0.1,1.7-0.2,2.5c0,0.1,0,0.2,0,0.2v-0.3C953.8,462.8,953.9,461.9,954,461.1z"/>
	<path class="st2" d="M954.2,527v0.2H954c0,13.8-11.2,25-25,25c-13,0-23.7-10-24.8-22.8c0,0.1,0,0.2,0,0.3c0,0.1,0,0.1,0,0.2
		c0,0.3,0.1,0.7,0.1,1c0.1,0.4,0.1,0.8,0.2,1.1c0,0.2,0.1,0.3,0.1,0.5c0,0.1,0.1,0.2,0.1,0.3c0,0.2,0.1,0.4,0.1,0.6
		c0.1,0.3,0.1,0.5,0.2,0.8c0.1,0.3,0.2,0.5,0.3,0.8c0.1,0.3,0.2,0.7,0.3,1c0.1,0.3,0.2,0.6,0.4,0.9c0.1,0.4,0.3,0.7,0.5,1.1
		s0.4,0.7,0.6,1.1c0.2,0.3,0.4,0.7,0.6,1c0.1,0.2,0.2,0.3,0.3,0.5c0.2,0.2,0.3,0.5,0.5,0.7c0.2,0.3,0.4,0.5,0.6,0.8
		c0.3,0.4,0.6,0.7,0.9,1.1c0,0,0,0,0,0c0,0,0.1,0.1,0.1,0.1c0,0,0,0.1,0.1,0.1c0.1,0.2,0.3,0.4,0.5,0.5c0.2,0.3,0.5,0.5,0.7,0.8
		c0.3,0.3,0.6,0.5,0.9,0.8c0.6,0.5,1.2,1,1.8,1.5c0,0,0,0,0,0c0.6,0.5,1.3,0.9,1.9,1.3c0.3,0.2,0.6,0.4,0.9,0.5
		c0.2,0.1,0.3,0.2,0.5,0.2c0.2,0.1,0.5,0.2,0.7,0.3c0.3,0.2,0.7,0.3,1,0.5c0.1,0,0.2,0.1,0.3,0.1c0.2,0.1,0.5,0.2,0.7,0.3
		c0.1,0,0.1,0,0.2,0.1c0,0,0.1,0,0.1,0.1c0.3,0.1,0.6,0.2,1,0.3c0.1,0,0.1,0,0.2,0.1c0.2,0.1,0.5,0.1,0.7,0.2
		c0.2,0.1,0.5,0.1,0.7,0.2c0,0,0.1,0,0.2,0c0.2,0,0.3,0.1,0.5,0.1c0.1,0,0.3,0.1,0.4,0.1c0,0,0,0,0.1,0c0.7,0.1,1.3,0.2,2,0.3h0
		c0.1,0,0.2,0,0.3,0c0.3,0,0.5,0,0.8,0.1c0.1,0,0.1,0,0.2,0c0.1,0,0.2,0,0.4,0c0.3,0,0.7,0,1,0c13.8,0,25-11.2,25-25H954.2z"/>
	<path class="st2" d="M960,493.5v0.1C960,493.6,960,493.6,960,493.5C960,493.6,960,493.6,960,493.5z"/>
	<path class="st2" d="M973,492.8v1.1c-0.2-0.2-0.4-0.4-0.7-0.5C972.6,493.1,972.8,492.9,973,492.8z"/>
	<path class="st2" d="M1028.1,527v4.1h-0.2c0,13.8-11.2,25-25,25c-13.8,0-25-11.2-25-25c0-0.7,0-1.4,0.1-2
		c1,12.8,11.8,22.9,24.9,22.9c13.8,0,25-11.2,25-25H1028.1z"/>
	<path class="st2" d="M1028.9,464.5c0,1.1-0.1,2.3-0.2,3.4v25.9c0,0-0.1-0.1-0.1-0.1c-0.1-0.1-0.3-0.2-0.4-0.3v-4.1
		c0.1,0.1,0.3,0.2,0.4,0.3v-29.4c0.1,0.7,0.2,1.4,0.3,2.2v0.1c0,0.4,0.1,0.7,0.1,1.1c0,0.1,0,0.2,0,0.3
		C1028.9,464.2,1028.9,464.3,1028.9,464.5z"/>
	<path class="st2" d="M1066.3,765.2c-1.5,0.1-2.9,0.1-4.3,0H1066.3z"/>
	<path class="st2" d="M1068.7,765c-0.8,0.1-1.5,0.2-2.3,0.2C1067.1,765.1,1067.9,765.1,1068.7,765z"/>
	<path class="st2" d="M1133.5,348.3v3.7c0-1.2,0-2.5-0.1-3.7H1133.5z"/>
	<path d="M903.8,489.5v8.3c-0.5-0.3-0.9-0.6-1.4-0.9v-6.5C902.9,490,903.3,489.7,903.8,489.5v-10.2l-7.8,11.5l8.3,12.9v-14.4
		C904.1,489.2,904,489.3,903.8,489.5z M1133.4,348.3c-1.9-27.2-24.6-48.8-52.4-48.8c-29,0-52.5,23.5-52.5,52.5c0,2.7,0.2,5.4,0.6,8
		c-0.4,1-0.6,2.1-0.6,3.3v52.5c-7.2-4.3-15.6-6.8-24.6-6.8c-15.1,0-28.5,7-37.4,17.8c-8.8-11-22.4-18.1-37.5-18.1
		c-9.8,0-19,3-26.6,8v-54.1c0.7-3.4,1.1-7,1.1-10.7c0-29-23.5-52.5-52.5-52.5c-27.7,0-50.5,21.5-52.4,48.8c-0.1,1.2-0.1,2.5-0.1,3.7
		v204.4c-11.3,5.7-26.8,22.3-29.8,41c-2.3,14,2.4,29.1,2.7,29.1l9.2,18.7c11.7,38.4,45.1,106.6,59.4,112.1
		c0.9,0.3,11.2,4.1,20.2,5.8c6.3,1.1,11.6,1.8,15.4,2.1h190.8c0.8,0,1.5-0.1,2.3-0.2c16.9-2.1,30-15.3,34.2-23.5
		c0.1-0.3,1.5-3.1,4.3-8.6c2.1-4.2,4.7-9.4,6.7-13.4l19.4-68.9c-0.1-0.7-0.2-1.5-0.3-2.2h0.5V352
		C1133.5,350.8,1133.5,349.5,1133.4,348.3z M1003.9,435.5c12.3,0,22.6,8.9,24.6,20.7c0.1,0.4,0.1,0.8,0.2,1.2c0,0.2,0.1,0.5,0.1,0.8
		c0,0.2,0.1,0.5,0.1,0.8c0,0.2,0,0.4,0,0.6c0,0.3,0,0.6,0,0.9c0,0.3,0,0.7,0,1c0,0.3,0,0.6-0.1,1v0.1c0,0.4-0.1,0.8-0.1,1.1
		c0,0.1,0,0.1,0,0.2v25.9c0,0-0.1-0.1-0.1-0.1c-0.1-0.1-0.3-0.2-0.4-0.3V527h-0.2c0,13.8-11.2,25-25,25c-13.1,0-23.8-10.1-24.9-22.9
		v0c-0.1-0.7-0.1-1.3-0.1-2c0-1.1,0.1-2.3,0.2-3.4v-26c0.2,0.1,0.4,0.2,0.5,0.3v-37.5h0.2c0-1,0.1-2,0.2-3
		C980.6,445.1,991.2,435.5,1003.9,435.5z M972.3,493.3c0.2-0.2,0.4-0.4,0.7-0.5v1.1C972.8,493.7,972.6,493.5,972.3,493.3z
		 M960,493.5v0.1C960,493.6,960,493.6,960,493.5C960,493.6,960,493.6,960,493.5z M929,435.3c12.8,0,23.4,9.7,24.8,22.2
		c0.1,0.9,0.2,1.9,0.2,2.8v0.2c0,0.2,0,0.5,0,0.7c0,0.8-0.1,1.7-0.2,2.5V498c0.2-0.1,0.3-0.2,0.5-0.3V527H954c0,13.8-11.2,25-25,25
		c-0.3,0-0.7,0-1,0c-0.1,0-0.2,0-0.4,0c0,0-0.1,0-0.2,0c-0.3,0-0.5,0-0.8-0.1c-0.1,0-0.2,0-0.3,0h0c-0.7-0.1-1.4-0.2-2-0.3
		c0,0,0,0-0.1,0c-0.2,0-0.3,0-0.4-0.1c-0.2,0-0.3-0.1-0.5-0.1c-0.1,0-0.1,0-0.2,0c-0.2-0.1-0.5-0.1-0.7-0.2
		c-0.2-0.1-0.5-0.1-0.7-0.2c-0.1,0-0.1,0-0.2-0.1c-0.3-0.1-0.7-0.2-1-0.3c-0.1,0-0.1,0-0.1-0.1c-0.1,0-0.1,0-0.2-0.1
		c-0.2-0.1-0.5-0.2-0.7-0.3c-0.1,0-0.2-0.1-0.3-0.1c-0.3-0.1-0.7-0.3-1-0.5c-0.2-0.1-0.5-0.2-0.7-0.3c-0.2-0.1-0.3-0.2-0.5-0.2
		c-0.3-0.2-0.6-0.3-0.9-0.5c-0.7-0.4-1.3-0.9-1.9-1.3c0,0,0,0,0,0c-0.6-0.5-1.2-1-1.8-1.5c-0.3-0.3-0.6-0.5-0.9-0.8
		c-0.3-0.2-0.5-0.5-0.7-0.8c-0.2-0.2-0.3-0.4-0.5-0.5c0,0-0.1-0.1-0.1-0.1c0,0-0.1-0.1-0.1-0.1c0,0,0,0,0,0
		c-0.3-0.4-0.6-0.7-0.9-1.1c-0.2-0.2-0.4-0.5-0.6-0.8c-0.2-0.2-0.3-0.5-0.5-0.7c-0.1-0.2-0.2-0.3-0.3-0.5c-0.2-0.3-0.4-0.7-0.6-1
		c-0.2-0.3-0.4-0.7-0.6-1.1s-0.4-0.7-0.5-1.1c-0.1-0.3-0.2-0.6-0.4-0.9c-0.1-0.3-0.2-0.6-0.3-1c-0.1-0.3-0.2-0.5-0.3-0.8
		c-0.1-0.3-0.2-0.5-0.2-0.8c0-0.2-0.1-0.4-0.1-0.6c0-0.1-0.1-0.2-0.1-0.3c0-0.2-0.1-0.3-0.1-0.5c-0.1-0.4-0.1-0.7-0.2-1.1
		c-0.1-0.3-0.1-0.7-0.1-1c0,0,0-0.1,0-0.2c0-0.1,0-0.2,0-0.3c0-0.3,0-0.5-0.1-0.8c0,0,0-0.1,0-0.1c0-0.3,0-0.5,0-0.8
		c0,0,0-0.1,0-0.1c0-0.1,0-0.2,0-0.3V527c0-0.2,0-0.4,0-0.6c0-0.9,0.1-1.8,0.2-2.8v-34.5c-0.2,0.1-0.3,0.2-0.5,0.3v8.3
		c-0.5-0.3-0.9-0.6-1.4-0.9v-6.5c0.5-0.3,0.9-0.6,1.4-0.9v-29.2h0.2c0-0.9,0.1-1.9,0.2-2.8C905.6,445,916.2,435.3,929,435.3z
		 M823,396.4c0.2,0.1,0.3,0.2,0.5,0.3v-41h0.2c0-15,12.2-27.2,27.2-27.2s27.2,12.2,27.2,27.2c0,1.2-0.1,2.5-0.2,3.7v1.9
		c-0.1,0.4-0.1,0.8-0.1,1.2v155.1l-3,1.6L823,547.1V396.4z M1109,647c-2,8.8-8.2,34.8-18.7,65.8c-4.1,12-10,18.1-14.8,21.5
		c-3.9,2.7-6.7,4.9-9.2,6.4H875.5c-5-0.7-10-1.4-15-2.1c-3.5-2.6-6.9-5.1-10.4-7.7c-18.9-38.4-37.8-76.8-56.7-115.3
		c-2.4-6-4.9-14.7-0.9-21.1c3.7-6,9.8-5.2,14.8-11.1l75.4-40.5c4.7,17.4,18.8,30.8,36.6,34.5l-62,55.5c-5,4.5-5.5,12.2-1,17.3
		c4.5,5,12.3,5.5,17.3,1l95.8-85.7c0.2-0.1,0.3-0.3,0.5-0.4c8.6,8.3,20.3,13.3,33.2,13.3c24.7,0,45-18.6,47.8-42.6c0,0,0,0,0,0
		c1.4-1.6,2.3-3.8,2.3-6.1V396.4c0.2,0.1,0.3,0.2,0.5,0.3v-41h0.2c0-15,12.2-27.2,27.2-27.2s27.2,12.2,27.2,27.2
		c0,1.2-0.1,2.5-0.2,3.7V397c0.3-0.2,0.7-0.4,1-0.6V647z"/>
	<path d="M798.6,348.3c-0.1,1.2-0.1,2.5-0.1,3.7v-3.7H798.6z"/>
	<path d="M1028.9,460.5c0,0.3,0,0.7,0,1c0,0.3,0,0.6-0.1,1v0.1c0,0.4-0.1,0.8-0.1,1.1c0,0.1,0,0.1,0,0.2v25.9c0,0-0.1-0.1-0.1-0.1
		v-33.5c0.1,0.4,0.1,0.8,0.2,1.2c0,0.2,0.1,0.5,0.1,0.8c0,0.2,0.1,0.5,0.1,0.8c0,0.2,0,0.4,0,0.6
		C1028.9,459.9,1028.9,460.2,1028.9,460.5z"/>
	<path d="M1133.5,348.3v3.7c0-1.2,0-2.5-0.1-3.7H1133.5z"/>
	<path d="M1068.7,765c-0.8,0.1-1.5,0.2-2.3,0.2C1067.1,765.1,1067.9,765.1,1068.7,765z"/>
	<path d="M1066.3,765.2c-1.5,0.1-2.9,0.1-4.3,0H1066.3z"/>
	<path d="M744.2,632L744.2,632z"/>
	<path d="M732.7,651.4L732.7,651.4z"/>
	<path d="M801.1,766.7L801.1,766.7z"/>
	<path d="M762.9,702.6L762.9,702.6z"/>
	<path d="M1164.1,680.9L1164.1,680.9z"/>
	<path d="M903.8,489.5v8.3c-0.5-0.3-0.9-0.6-1.4-0.9v-6.5C902.9,490,903.3,489.7,903.8,489.5z"/>
	<path d="M973,492.8v1.1c-0.2-0.2-0.4-0.4-0.7-0.5C972.6,493.1,972.8,492.9,973,492.8z"/>
	<path d="M973,492.8v1.1c-0.2-0.2-0.4-0.4-0.7-0.5C972.6,493.1,972.8,492.9,973,492.8z"/>
	<path d="M903.8,489.5v8.3c-0.5-0.3-0.9-0.6-1.4-0.9v-6.5C902.9,490,903.3,489.7,903.8,489.5z"/>
	<path d="M973,492.8v1.1c-0.2-0.2-0.4-0.4-0.7-0.5C972.6,493.1,972.8,492.9,973,492.8z"/>
</g>
<g id="Ebene_3">
	<path class="st3" d="M1904.8,489.8l-13.2,7.8c-0.2,0-0.4,0.1-0.5,0.1c-0.2,0-0.3,0.1-0.4,0.1c-0.2,0-0.3,0-0.5,0v0l-557.4,105.8
		l0-0.1l0,0.1l-133.9-69.2l0.1-0.2h-32.3v-87.9h33.3l131.8-68.1l0.4,0.8l0.1-0.7l5.7,1.1l549.8,104.4c0.1,0,0.2,0,0.3,0
		c1.2,0.4,2.5,0.6,3.7,0.8c0.1,0,0.1,0,0.2,0L1904.8,489.8z"/>
	<path class="st3" d="M789.3,481c-0.4-2.5-0.9-4.9-1.6-7.2c0,0,0,0,0,0c-7.1-25-30.1-43.3-57.3-43.3c-32.9,0-59.6,26.7-59.6,59.6
		s26.7,59.6,59.6,59.6c27.2,0,50.2-18.3,57.3-43.3c0,0,0,0,0,0c0.7-2.3,1.2-4.8,1.6-7.2c0.5-2.9,0.7-5.9,0.7-9
		S789.8,483.9,789.3,481z M705.2,489.2c0-13.9,11.5-25.2,25.8-25.2s25.8,11.3,25.8,25.2c0,13.9-11.6,25.2-25.8,25.2
		S705.2,503.1,705.2,489.2z"/>
	<path class="st3" d="M904.3,489.2v25.7H787.7v-51.2h116.1v25.8C904,489.3,904.1,489.2,904.3,489.2z"/>
	<polygon class="st3" points="952.2,513.6 952,513.7 951.1,513.1 951.5,512.5 	"/>
	<path class="st3" d="M978.7,463.6V498c-0.2-0.1-0.4-0.2-0.5-0.3v17.2h-24v-17.1c-0.2,0.1-0.3,0.2-0.5,0.3v-34.4H978.7z"/>
	<polygon class="st3" points="990.3,512.5 990,512.7 990.2,512.4 	"/>
	<path class="st3" d="M1165.7,463.6v51.2h-137.6v-25.5c0.1,0.1,0.3,0.2,0.4,0.3v-26.1H1165.7z"/>
	<path class="st4" d="M953.7,464v7.5l12.5,19.5l-12,17.6v5.7h24v-16.7c0.2,0.1,0.4,0.2,0.5,0.3v-3.5l-2.2-3.4l2.2-3.2V464H953.7z
		 M990.2,512.4l-0.2,0.3l0.3-0.2L990.2,512.4z M1028.5,464v7.5l0.1-0.2l2.4-3.6l-0.5-0.3h2.2l14.9,23.2l-12.9,18.9h-5l-1.7-2.6v7.6
		h137.6V464H1028.5z M1070,509.4l-12-18.7l15.9-23.3h0.4l13.4,20.9l-14.4,21.1H1070z M1111.5,509.4l-2.5-3.9l-11-17.1l11-16.1l3.4-5
		h3.6l14.4,22.4l-13.4,19.7H1111.5z M1162.2,509.4h-8.9l-12.5-19.5l15.4-22.5h6.1V509.4z M951.5,512.5l-0.4,0.6l0.9,0.6l0.2-0.1
		L951.5,512.5z M896,490.7l7.8-11.5V464H789.3v50.4h115v-10.8L896,490.7z M791.9,509.4h-1c2-6.1,3-12.7,3-19.5
		c0-6.2-0.9-12.2-2.5-17.9l7.1,11.1l5.5,8.6l-5.5,8.1L791.9,509.4z M825.6,509.4l-2.6-4.1l-8.7-13.5l8.7-12.7l7.5-10.9l13.6,21.3
		l-13.6,20H825.6z M872.8,509.4h-5.7l-12.7-19.8l14.5-21.2l-1.5-1h3.4l7.1,11.1l7.8,12.1l-7.8,11.4L872.8,509.4z"/>
	<path d="M730.9,453.7c-19.8,0-35.9,16.1-35.9,35.9s16.1,35.9,35.9,35.9s35.9-16.1,35.9-35.9S750.7,453.7,730.9,453.7z M731,514.3
		c-14.2,0-25.8-11.3-25.8-25.2c0-13.9,11.5-25.2,25.8-25.2s25.8,11.3,25.8,25.2C756.8,503.1,745.3,514.3,731,514.3z"/>
	<path class="st2" d="M730.9,453.7c-19.8,0-35.9,16.1-35.9,35.9s16.1,35.9,35.9,35.9s35.9-16.1,35.9-35.9S750.7,453.7,730.9,453.7z
		 M731,514.3c-14.2,0-25.8-11.3-25.8-25.2c0-13.9,11.5-25.2,25.8-25.2s25.8,11.3,25.8,25.2C756.8,503.1,745.3,514.3,731,514.3z"/>
	<path d="M730.9,453.7c-19.8,0-35.9,16.1-35.9,35.9s16.1,35.9,35.9,35.9s35.9-16.1,35.9-35.9S750.7,453.7,730.9,453.7z M731,514.3
		c-14.2,0-25.8-11.3-25.8-25.2c0-13.9,11.5-25.2,25.8-25.2s25.8,11.3,25.8,25.2C756.8,503.1,745.3,514.3,731,514.3z"/>
	<polygon points="830.6,467.3 829.9,467.3 829.9,467.3 830.2,467.1 	"/>
	<polygon points="828,513.2 827.8,513.4 828,513 	"/>
	<polygon points="952.2,513.6 952,513.7 951.1,513.1 951.5,512.5 	"/>
	<polygon points="990.3,512.5 990,512.7 990.2,512.4 	"/>
	<g>
		<polygon points="828,513.2 827.8,513.4 828,513 		"/>
		<polygon points="830.9,467.5 830.4,468.1 829.9,467.3 829.9,467.3 830.2,467.1 830.6,467.3 		"/>
		<polygon points="863.4,519.3 863.3,519.4 863.3,519.3 		"/>
		<polygon points="830.9,467.5 830.4,468.1 829.9,467.3 829.9,467.3 830.2,467.1 830.6,467.3 		"/>
		<polygon points="828,513.2 827.8,513.4 828,513 		"/>
		<polygon points="834.1,519.3 834,519.4 833.8,519.3 		"/>
		<polygon points="828,513.2 827.8,513.4 828,513 		"/>
		<path d="M1071.6,511.9l-0.2,0.3l0.3-0.2L1071.6,511.9z"/>
		<polygon points="830.9,467.5 830.4,468.1 829.9,467.3 829.9,467.3 830.2,467.1 830.6,467.3 		"/>
		<polygon points="863.4,519.3 863.3,519.4 863.3,519.3 		"/>
		<polygon points="830.9,467.5 830.4,468.1 829.9,467.3 829.9,467.3 830.2,467.1 830.6,467.3 		"/>
		<polygon points="828,513.2 827.8,513.4 828,513 		"/>
		<polygon points="834.1,519.3 834,519.4 833.8,519.3 		"/>
	</g>
	<g>
		<polygon points="952.2,513.6 952,513.7 951.1,513.1 951.5,512.5 		"/>
		<polygon points="952.2,513.6 952,513.7 951.1,513.1 951.5,512.5 		"/>
	</g>
	<g>
		<polygon points="990.3,512.5 990,512.7 990.2,512.4 		"/>
		<polygon points="952.2,513.6 952,513.7 951.1,513.1 951.5,512.5 		"/>
		<polygon points="990.3,512.5 990,512.7 990.2,512.4 		"/>
		<polygon points="990.3,512.5 990,512.7 990.2,512.4 		"/>
		<polygon points="952.2,513.6 952,513.7 951.1,513.1 951.5,512.5 		"/>
		<polygon points="1074.3,467.3 1073.9,467.3 1074.1,467 		"/>
		<polygon points="990.3,512.5 990,512.7 990.2,512.4 		"/>
	</g>
	<g>
		<polygon points="1071.7,512 1071.4,512.2 1071.6,511.9 		"/>
		<polygon points="1071.7,512 1071.4,512.2 1071.6,511.9 		"/>
		<polygon points="1071.7,512 1071.4,512.2 1071.6,511.9 		"/>
		<polygon points="1071.7,512 1071.4,512.2 1071.6,511.9 		"/>
	</g>
	<path class="st5" d="M953.8,457.4c0.1,0.9,0.2,1.9,0.2,2.8v0.2c0,0.2,0,0.5,0,0.7c0,0.8-0.1,1.7-0.2,2.5v7.9l12.5,19.5l-12,17.6
		v10.7h24v-21.6c0.2,0.1,0.4,0.2,0.5,0.3v-3.5l-2.2-3.4l2.2-3.2v-15.3l-7.2,10.6l-10.2-15.9h17.5v-6.9h0.2c0-1,0.1-2,0.2-3H953.8z
		 M978,509.4h-14l7.2-10.5L978,509.4z M1892,484.7c-0.1,0-0.1,0-0.2,0c-1.3-0.2-2.5-0.5-3.7-0.8c-0.1,0-0.2,0-0.3,0l-549.8-104.4
		l-5.7-1.1l-0.1,0.7l-0.4-0.8l-131.8,68.1h-37.7v11h-133.7v14l0.1-0.2l2.4-3.6l-0.5-0.3h2.2l14.9,23.2l-12.9,18.9h-5l-1.7-2.6v12.5
		h134.1v15h36.7l-0.1,0.2l133.9,69.2l0-0.1l0,0.1l557.4-105.8v0c0.2,0,0.3,0,0.5,0c0.1,0,0.2,0,0.4-0.1c0.2,0,0.4-0.1,0.5-0.1
		l13.2-7.8L1892,484.7z M1101.3,509.4h-17.5l9-13.2L1101.3,509.4z M1084.5,467.3h17.5l-9,13.2L1084.5,467.3z M1098,488.4l11-16.1
		l3.4-5h3.6l14.4,22.4l-13.4,19.7h-5.5l-2.5-3.9L1098,488.4z M1133.5,500.5l2-2.9l7.6,11.8h-15.6L1133.5,500.5z M1133.5,478.5
		l-7.2-11.2h19.4l-10,14.7L1133.5,478.5z M1074.1,467l0.2,0.3l13.4,20.9l-14.4,21.1h-3.4l-12-18.7l15.9-23.3L1074.1,467z
		 M1071.7,512l-0.3,0.2l0.2-0.3L1071.7,512z M1162.2,509.4h-8.9l-12.5-19.5l15.4-22.5h6.1V509.4z M1043,467.3h20.5l-10.5,15.4
		l-0.1,0.1L1043,467.3z M1052.7,498.4l0.3,0.5l6.8,10.5h-14.6L1052.7,498.4z M1197.8,526.5h-27.3v-72.4h27.3V526.5z M1205.9,455.9
		l118.9-61.4l-47.1,91.2h-71.7V455.9z M1205.9,525.6v-29h70l46,89L1205.9,525.6z M1339.5,592.9l-49.8-96.3h556.7L1339.5,592.9z
		 M1291.5,485.6l49.6-96l505.3,96H1291.5z M896,490.7l7.8-11.5v-19h0.2c0-0.9,0.1-1.9,0.2-2.8H785.3v0.3
		c-11.1-19-31.7-31.8-55.3-31.8c-35.3,0-64,28.6-64,64c0,35.3,28.7,64,64,64c24.8,0,46.2-14.1,56.9-34.6h117.5v-15.7L896,490.7z
		 M897.8,509.4h-14.6l7.5-11L897.8,509.4z M731.1,543.3c-29.3,0-53-23.7-53-53c0-29.3,23.7-53,53-53s53,23.7,53,53
		C784.1,519.5,760.3,543.3,731.1,543.3z M825.6,509.4l-2.6-4.1l-8.7-13.5l8.7-12.7l7.5-10.9l-0.5-0.8l0,0l0.3-0.2l0.3,0.2l0.3,0.2
		l-0.4,0.6l13.6,21.3l-13.6,20H825.6z M828,513.2l-0.3,0.2l0.2-0.3L828,513.2z M791.4,472l7.1,11.1l5.5,8.6l-5.5,8.1l-6.6,9.6h-1
		c2-6.1,3-12.7,3-19.5C793.9,483.7,793,477.7,791.4,472z M798.6,467.3h22l-11.3,16.6L798.6,467.3z M809.1,499.5l6.3,9.9h-13.1
		L809.1,499.5z M849.1,497.3l7.8,12.1h-16L849.1,497.3z M840.1,467.3h19l-9.8,14.4L840.1,467.3z M867.1,509.4l-12.7-19.8l14.5-21.2
		l-1.5-1h3.4l7.1,11.1l7.8,12.1l-7.8,11.4l-5.1,7.5H867.1z M891,482.8l-9.9-15.5h20.5L891,482.8z"/>
	<g id="Ebene_6">
		<rect x="878.2" y="440" width="26.4" height="92.5"/>
		<rect x="954.2" y="453.7" width="23.8" height="80.9"/>
		<rect x="1028.1" y="437.3" width="24.4" height="89.7"/>
	</g>
	<rect x="943.3" y="456.9" class="st1" width="10.4" height="68.5"/>
	<rect x="979" y="458.2" class="st1" width="17.1" height="74.2"/>
</g>
</svg>
