<?xml version="1.0" encoding="utf-8"?>
<!-- Generator: Adobe Illustrator 25.2.3, SVG Export Plug-In . SVG Version: 6.00 Build 0)  -->
<svg version="1.1" xmlns="http://www.w3.org/2000/svg" xmlns:xlink="http://www.w3.org/1999/xlink" x="0px" y="0px"
	 viewBox="0 0 3000 2000" style="enable-background:new 0 0 3000 2000;" xml:space="preserve">
<style type="text/css">
	.st0{fill:#999999;}
	.st1{fill:#BC2424;}
	.st2{fill:#FFFFFF;}
	.st3{stroke:#000000;stroke-miterlimit:10;}
</style>
<g id="Ebene_7">
	<path class="st0" d="M2168.3,999.8l-13.2,7.8c-0.2,0-0.4,0.1-0.5,0.1c-0.2,0-0.3,0.1-0.4,0.1c-0.2,0-0.3,0-0.5,0v0l-557.4,105.8
		l0-0.1l0,0.1l-133.9-69.2l0.1-0.2h-32.3v-87.9h33.3l131.8-68.1l0.4,0.8l0.1-0.7l5.7,1.1l549.8,104.4c0.1,0,0.2,0,0.3,0
		c1.2,0.4,2.5,0.6,3.7,0.8c0.1,0,0.1,0,0.2,0L2168.3,999.8z"/>
	<path class="st0" d="M1052.8,991c-0.4-2.5-0.9-4.9-1.6-7.2c-7.1-25-30.1-43.3-57.3-43.3c-32.9,0-59.6,26.7-59.6,59.6
		c0,32.9,26.7,59.6,59.6,59.6c27.3,0,50.2-18.3,57.3-43.3c0.7-2.4,1.2-4.8,1.6-7.2c0.4-2.9,0.7-5.9,0.7-9
		C1053.5,996.9,1053.2,993.9,1052.8,991z M968.7,999.1c0-13.9,11.6-25.2,25.8-25.2s25.8,11.3,25.8,25.2c0,13.9-11.5,25.2-25.8,25.2
		S968.7,1013,968.7,999.1z"/>
	<rect x="1051.2" y="973.6" class="st0" width="377.9" height="51.3"/>
	<path class="st1" d="M1052.8,973.9v50.4h376.3v-50.4H1052.8z M1054.4,1019.3c2-6.1,3-12.7,3-19.5c0-6.2-0.9-12.2-2.5-17.9
		l12.6,19.7l-12.1,17.7H1054.4z M1089.1,1019.3l-11.3-17.6l16.1-23.6l13.7,21.3l-13.6,20H1089.1z M1130.6,1019.3l-12.7-19.8
		l14.5-21.2l-1.5-1h3.4l14.9,23.2l-12.9,18.9H1130.6z M1171.5,1019.3l-12-18.7l15.9-23.3h0.4l13.4,21l-14.4,21.1H1171.5z
		 M1213,1019.3l-13.4-21l14.4-21.1h0.6l15.2,23.6l-12.6,18.4H1213z M1251.7,1019.3l-11.7-18.3l16.1-23.6l13.6,21.2l-14.1,20.7
		H1251.7z M1293.3,1019.3l-13.2-20.5l14.5-21.2l-0.5-0.3h2.2l14.9,23.2l-12.9,18.9H1293.3z M1333.5,1019.3l-12-18.7l15.9-23.3h0.4
		l13.4,20.9l-14.4,21.1H1333.5z M1375,1019.3l-13.5-21l14.4-21.1h3.6l14.4,22.4l-13.4,19.7H1375z M1425.7,1019.3h-8.9l-12.5-19.5
		l15.4-22.5h6.1V1019.3z"/>
	<path d="M994.3,963.7c-19.8,0-35.9,16.1-35.9,35.9s16.1,35.9,35.9,35.9s35.9-16.1,35.9-35.9S1014.2,963.7,994.3,963.7z
		 M994.5,1024.3c-14.2,0-25.8-11.3-25.8-25.2c0-13.9,11.6-25.2,25.8-25.2s25.8,11.3,25.8,25.2
		C1020.3,1013,1008.8,1024.3,994.5,1024.3z"/>
	<path class="st2" d="M994.3,963.7c-19.8,0-35.9,16.1-35.9,35.9s16.1,35.9,35.9,35.9s35.9-16.1,35.9-35.9S1014.2,963.7,994.3,963.7z
		 M994.5,1024.3c-14.2,0-25.8-11.3-25.8-25.2c0-13.9,11.6-25.2,25.8-25.2s25.8,11.3,25.8,25.2
		C1020.3,1013,1008.8,1024.3,994.5,1024.3z"/>
	<path d="M994.3,963.7c-19.8,0-35.9,16.1-35.9,35.9s16.1,35.9,35.9,35.9s35.9-16.1,35.9-35.9S1014.2,963.7,994.3,963.7z
		 M994.5,1024.3c-14.2,0-25.8-11.3-25.8-25.2c0-13.9,11.6-25.2,25.8-25.2s25.8,11.3,25.8,25.2
		C1020.3,1013,1008.8,1024.3,994.5,1024.3z"/>
	<polygon points="1094,977.3 1093.4,977.3 1093.4,977.3 1093.7,977.1 	"/>
	<polygon points="1175.8,977.3 1175.4,977.3 1175.6,977 	"/>
	<polygon points="1176,976.4 1175.6,977 1175.1,976.2 1175.4,976 	"/>
	<polygon points="1256.6,976.8 1256.2,977.3 1256.1,977.3 1255.6,976.6 1255.9,976.4 	"/>
	<polygon points="1091.5,1023.1 1091.2,1023.3 1091.4,1023 	"/>
	<polygon points="1173.2,1022 1172.9,1022.2 1173.1,1021.9 	"/>
	<polygon points="1215.7,1023.5 1215.5,1023.7 1214.6,1023.1 1215,1022.5 	"/>
	<polygon points="1253.7,1022.5 1253.4,1022.7 1253.7,1022.3 	"/>
	<g>
		<polygon points="1091.5,1023.1 1091.2,1023.3 1091.4,1023 		"/>
		<polygon points="1094.3,977.5 1093.9,978.1 1093.4,977.3 1093.4,977.3 1093.7,977.1 1094,977.3 		"/>
		<polygon points="1126.9,1029.2 1126.8,1029.3 1126.8,1029.2 		"/>
		<polygon points="1094.3,977.5 1093.9,978.1 1093.4,977.3 1093.4,977.3 1093.7,977.1 1094,977.3 		"/>
		<polygon points="1091.5,1023.1 1091.2,1023.3 1091.4,1023 		"/>
		<polygon points="1097.6,1029.2 1097.5,1029.4 1097.3,1029.2 		"/>
		<polygon points="1091.5,1023.1 1091.2,1023.3 1091.4,1023 		"/>
		<path d="M1335.1,1021.9l-0.2,0.3l0.3-0.2L1335.1,1021.9z"/>
		<polygon points="1094.3,977.5 1093.9,978.1 1093.4,977.3 1093.4,977.3 1093.7,977.1 1094,977.3 		"/>
		<polygon points="1126.9,1029.2 1126.8,1029.3 1126.8,1029.2 		"/>
		<polygon points="1094.3,977.5 1093.9,978.1 1093.4,977.3 1093.4,977.3 1093.7,977.1 1094,977.3 		"/>
		<polygon points="1091.5,1023.1 1091.2,1023.3 1091.4,1023 		"/>
		<polygon points="1097.6,1029.2 1097.5,1029.4 1097.3,1029.2 		"/>
	</g>
	<g>
		<polygon points="1173.2,1022 1172.9,1022.2 1173.1,1021.9 		"/>
		<polygon points="1176,976.4 1175.6,977 1175.1,976.2 1175.4,976 		"/>
		<polygon points="1176,976.4 1175.6,977 1175.1,976.2 1175.4,976 		"/>
		<polygon points="1215.7,1023.5 1215.5,1023.7 1214.6,1023.1 1215,1022.5 		"/>
		<polygon points="1173.2,1022 1172.9,1022.2 1173.1,1021.9 		"/>
		<polygon points="1173.2,1022 1172.9,1022.2 1173.1,1021.9 		"/>
		<polygon points="1176,976.4 1175.6,977 1175.1,976.2 1175.4,976 		"/>
		<polygon points="1176,976.4 1175.6,977 1175.1,976.2 1175.4,976 		"/>
		<polygon points="1215.7,1023.5 1215.5,1023.7 1214.6,1023.1 1215,1022.5 		"/>
		<polygon points="1173.2,1022 1172.9,1022.2 1173.1,1021.9 		"/>
	</g>
	<g>
		<polygon points="1253.7,1022.5 1253.4,1022.7 1253.7,1022.3 		"/>
		<polygon points="1215.7,1023.5 1215.5,1023.7 1214.6,1023.1 1215,1022.5 		"/>
		<polygon points="1256.6,976.8 1256.2,977.3 1256.1,977.4 1256.1,977.3 1255.6,976.6 1255.9,976.4 		"/>
		<polygon points="1256.6,976.8 1256.2,977.3 1256.1,977.4 1256.1,977.3 1255.6,976.6 1255.9,976.4 		"/>
		<polygon points="1253.7,1022.5 1253.4,1022.7 1253.7,1022.3 		"/>
		<polygon points="1253.7,1022.5 1253.4,1022.7 1253.7,1022.3 		"/>
		<polygon points="1215.7,1023.5 1215.5,1023.7 1214.6,1023.1 1215,1022.5 		"/>
		<polygon points="1256.6,976.8 1256.2,977.3 1256.1,977.4 1256.1,977.3 1255.6,976.6 1255.9,976.4 		"/>
		<polygon points="1337.8,977.3 1337.4,977.3 1337.6,977 		"/>
		<polygon points="1256.6,976.8 1256.2,977.3 1256.1,977.4 1256.1,977.3 1255.6,976.6 1255.9,976.4 		"/>
		<polygon points="1253.7,1022.5 1253.4,1022.7 1253.7,1022.3 		"/>
	</g>
	<g>
		<polygon points="1335.2,1022 1334.9,1022.2 1335.1,1021.9 		"/>
		<polygon points="1335.2,1022 1334.9,1022.2 1335.1,1021.9 		"/>
		<polygon points="1335.2,1022 1334.9,1022.2 1335.1,1021.9 		"/>
		<polygon points="1335.2,1022 1334.9,1022.2 1335.1,1021.9 		"/>
	</g>
	<path class="st3" d="M2155.5,994.6c-0.1,0-0.1,0-0.2,0c-1.3-0.2-2.5-0.5-3.7-0.8c-0.1,0-0.2,0-0.3,0l-549.8-104.4l-5.7-1.1
		l-0.1,0.7l-0.4-0.8l-131.8,68.1h-37.7v11h-376.9v0.3c-11.1-19-31.7-31.8-55.3-31.8c-35.3,0-64,28.7-64,64s28.7,64,64,64
		c24.8,0,46.2-14.1,56.9-34.6h375.4v15h36.7l-0.1,0.2l133.9,69.2l0-0.1l0,0.1l557.4-105.8v0c0.2,0,0.3,0,0.5,0c0.1,0,0.2,0,0.4-0.1
		c0.2,0,0.4-0.1,0.5-0.1l13.2-7.8L2155.5,994.6z M994.5,1053.2c-29.3,0-53-23.7-53-53c0-29.3,23.7-53,53-53c29.3,0,53,23.7,53,53
		C1047.5,1029.5,1023.8,1053.2,994.5,1053.2z M1054.9,981.9l12.6,19.7l-12.1,17.7h-1c2-6.1,3-12.7,3-19.5
		C1057.4,993.6,1056.5,987.6,1054.9,981.9z M1093.4,977.3L1093.4,977.3l0.3-0.2l0.3,0.2l0.3,0.2l-0.4,0.6l13.7,21.3l-13.6,20h-4.8
		l-11.3-17.6l16.1-23.6L1093.4,977.3z M1130.9,977.3h3.4l14.9,23.2l-12.9,18.9h-5.7l-12.7-19.8l14.5-21.2L1130.9,977.3z
		 M1175.1,976.2l0.3-0.2l0.6,0.4l-0.4,0.6l0.2,0.3l13.4,21l-14.4,21.1h-3.4l-12-18.7l15.9-23.3l0.2-0.3L1175.1,976.2z M1256.1,977.3
		l-0.4-0.7l0.3-0.2l0.6,0.4l-0.3,0.5l-0.1,0.1l13.6,21.2l-14.1,20.7h-3.9l-11.7-18.3l16.1-23.6L1256.1,977.3z M1294.1,977.3h2.2
		l14.9,23.2l-12.9,18.9h-5l-13.2-20.5l14.5-21.2L1294.1,977.3z M1389.8,977.3h19.4l-10,14.7L1389.8,977.3z M1406.6,1019.3h-15.6
		l8.1-11.8L1406.6,1019.3z M1393.9,999.7l-13.4,19.7h-5.5l-13.5-21l14.4-21.1h3.6L1393.9,999.7z M1364.8,1019.3h-17.5l9-13.2
		L1364.8,1019.3z M1356.5,990.5l-8.5-13.2h17.5L1356.5,990.5z M1351.2,998.2l-14.4,21.1h-3.4l-12-18.7l15.9-23.3l0.2-0.3l0.2,0.3
		L1351.2,998.2z M1335.2,1022l-0.3,0.2l0.2-0.3L1335.2,1022z M1323.2,1019.3h-14.6l7.5-11L1323.2,1019.3z M1316.4,992.8l-9.9-15.5
		h20.5L1316.4,992.8z M1283,1019.3h-16.9l8.7-12.8L1283,1019.3z M1275.1,991l-8.8-13.7h18.1L1275.1,991z M1253.7,1022.5l-0.3,0.2
		l0.2-0.3L1253.7,1022.5z M1241.5,1019.3h-14l7.2-10.6L1241.5,1019.3z M1235,993.2l-10.2-15.9h21.1L1235,993.2z M1229.7,1000.9
		l-12.6,18.4h-4.1l-13.4-21l14.4-21.1h0.6L1229.7,1000.9z M1215.7,1023.5l-0.2,0.1l-0.9-0.6l0.4-0.6L1215.7,1023.5z M1202.8,1019.3
		h-17.5l9-13.2L1202.8,1019.3z M1194.5,990.5l-8.5-13.2h17.5L1194.5,990.5z M1173.2,1022l-0.3,0.2l0.2-0.3L1173.2,1022z
		 M1161.3,1019.3h-14.6l7.5-11L1161.3,1019.3z M1154.4,992.8l-9.9-15.5h20.5L1154.4,992.8z M1120.4,1019.3h-16l8.3-12.1
		L1120.4,1019.3z M1112.8,991.7l-9.2-14.4h19L1112.8,991.7z M1091.5,1023.1l-0.3,0.2l0.2-0.3L1091.5,1023.1z M1078.9,1019.3h-13.1
		l6.7-9.9L1078.9,1019.3z M1072.8,993.9l-10.7-16.6h22L1072.8,993.9z M1425.7,1019.3h-8.9l-12.5-19.5l15.4-22.5h6.1V1019.3z
		 M1461.2,1036.5H1434v-72.3h27.3V1036.5z M1469.4,965.8l118.9-61.4l-47.1,91.2h-71.7V965.8z M1469.4,1035.6v-29h70l46,89
		L1469.4,1035.6z M1603,1102.8l-49.8-96.3h556.7L1603,1102.8z M1555,995.6l49.6-96l505.3,96H1555z"/>
</g>
<g id="Ebene_2">
</g>
</svg>
